<svg width="2560" height="552" viewBox="0 0 2560 552" fill="none" xmlns="http://www.w3.org/2000/svg">
<path d="M198.07 274.752L198.556 273.715L198.088 272.669L156.921 180.722C156.919 180.719 156.918 180.717 156.917 180.714C154.779 175.849 154.109 171.484 154.712 167.552C155.472 163.716 157.464 160.735 160.792 158.499L160.823 158.478L160.854 158.456C164.172 156.078 168.894 154.75 175.284 154.75C180.559 154.75 184.463 155.966 187.252 158.136L187.309 158.18L187.368 158.221C190.264 160.219 193.214 164.503 195.987 171.673L195.99 171.681L218.416 229.132L220.715 235.021L223.066 229.152L246.179 171.44L246.183 171.431C248.95 164.445 251.898 160.229 254.81 158.221L254.819 158.214L254.829 158.207C257.986 155.985 262.371 154.75 268.217 154.75C273.066 154.75 276.664 156.015 279.279 158.305L279.309 158.331L279.339 158.356C281.987 160.53 283.658 163.516 284.281 167.505C284.896 171.448 284.23 175.827 282.085 180.71C282.083 180.714 282.081 180.718 282.079 180.722L221.992 313.733C221.991 313.734 221.991 313.736 221.99 313.737C218.893 320.517 215.637 324.563 212.417 326.437L212.359 326.471L212.303 326.508C209.113 328.603 204.865 329.75 199.378 329.75C194.336 329.75 190.536 328.475 187.736 326.152C184.864 323.769 183.032 320.656 182.248 316.687C181.645 312.758 182.315 308.49 184.438 303.82C184.44 303.816 184.441 303.811 184.443 303.807L198.07 274.752Z" stroke="#CAD3F5" stroke-width="5"/>
<path d="M322.057 248.193L322.054 248.198L308.836 277.428L308.375 278.449L308.829 279.472L349.579 371.278C349.58 371.28 349.581 371.282 349.582 371.283C351.721 376.149 352.391 380.515 351.788 384.448C351.028 388.284 349.036 391.265 345.708 393.501L345.677 393.522L345.646 393.544C342.328 395.922 337.606 397.25 331.216 397.25C325.941 397.25 322.038 396.034 319.248 393.864L319.191 393.82L319.132 393.779C316.236 391.781 313.286 387.497 310.513 380.327L310.51 380.319L288.505 323.947L286.248 318.167L283.867 323.897L260.333 380.53L260.325 380.549L260.317 380.569C257.55 387.555 254.602 391.771 251.69 393.779L251.681 393.786L251.671 393.793C248.514 396.015 244.129 397.25 238.283 397.25C233.434 397.25 229.836 395.985 227.221 393.695L227.191 393.669L227.16 393.644C224.513 391.47 222.842 388.484 222.219 384.495C221.604 380.551 222.27 376.172 224.416 371.289C224.417 371.285 224.419 371.282 224.421 371.278L284.508 238.267C284.509 238.265 284.51 238.264 284.51 238.262C287.607 231.483 290.863 227.437 294.083 225.563L294.141 225.529L294.197 225.492C297.387 223.397 301.635 222.25 307.122 222.25C312.164 222.25 315.964 223.525 318.764 225.848C321.636 228.231 323.468 231.345 324.252 235.313C324.856 239.246 324.184 243.518 322.057 248.193Z" stroke="#CAD3F5" stroke-width="5"/>
<path d="M402.212 318.48L410.18 300.432L390.5 254.544H398.948L414.404 292.368L429.956 254.544H438.116L410.372 318.48H402.212Z" fill="#CAD3F5"/>
<path d="M464.699 302.064C461.499 302.064 458.619 301.456 456.059 300.24C453.563 298.96 451.579 297.232 450.107 295.056C448.635 292.88 447.899 290.448 447.899 287.76C447.899 284.368 448.763 281.68 450.491 279.696C452.283 277.712 455.195 276.304 459.227 275.472C463.323 274.576 468.891 274.128 475.931 274.128H479.003V271.152C479.003 267.184 478.171 264.336 476.507 262.608C474.907 260.816 472.315 259.92 468.731 259.92C465.915 259.92 463.195 260.336 460.571 261.168C457.947 261.936 455.259 263.216 452.507 265.008L449.819 259.344C452.251 257.616 455.195 256.24 458.651 255.216C462.171 254.192 465.531 253.68 468.731 253.68C474.747 253.68 479.195 255.152 482.075 258.096C485.019 261.04 486.491 265.616 486.491 271.824V301.2H479.195V293.136C477.979 295.888 476.091 298.064 473.531 299.664C471.035 301.264 468.091 302.064 464.699 302.064ZM465.947 296.208C469.787 296.208 472.923 294.896 475.355 292.272C477.787 289.584 479.003 286.192 479.003 282.096V279.216H476.027C470.843 279.216 466.747 279.472 463.739 279.984C460.795 280.432 458.715 281.264 457.499 282.48C456.347 283.632 455.771 285.232 455.771 287.28C455.771 289.904 456.667 292.048 458.459 293.712C460.315 295.376 462.811 296.208 465.947 296.208Z" fill="#CAD3F5"/>
<path d="M505.909 301.2V254.544H513.493V262.416C514.901 259.6 516.853 257.456 519.349 255.984C521.845 254.448 524.757 253.68 528.085 253.68C535.381 253.68 540.053 256.848 542.101 263.184C543.509 260.24 545.589 257.936 548.341 256.272C551.093 254.544 554.261 253.68 557.845 253.68C568.213 253.68 573.397 259.824 573.397 272.112V301.2H565.621V272.496C565.621 268.208 564.853 265.072 563.317 263.088C561.845 261.04 559.381 260.016 555.925 260.016C552.149 260.016 549.141 261.36 546.901 264.048C544.661 266.736 543.541 270.32 543.541 274.8V301.2H535.765V272.496C535.765 268.208 534.997 265.072 533.461 263.088C531.989 261.04 529.525 260.016 526.069 260.016C522.229 260.016 519.189 261.36 516.949 264.048C514.773 266.736 513.685 270.32 513.685 274.8V301.2H505.909Z" fill="#CAD3F5"/>
<path d="M616.352 302.064C612.64 302.064 609.376 301.232 606.56 299.568C603.808 297.904 601.728 295.632 600.32 292.752V301.2H592.736V233.52H600.512V262.608C601.856 259.856 603.936 257.68 606.752 256.08C609.568 254.48 612.768 253.68 616.352 253.68C620.512 253.68 624.128 254.672 627.2 256.656C630.336 258.576 632.736 261.36 634.4 265.008C636.128 268.592 636.992 272.88 636.992 277.872C636.992 282.8 636.128 287.088 634.4 290.736C632.736 294.32 630.336 297.104 627.2 299.088C624.128 301.072 620.512 302.064 616.352 302.064ZM614.72 295.824C619.072 295.824 622.56 294.288 625.184 291.216C627.808 288.08 629.12 283.632 629.12 277.872C629.12 272.048 627.808 267.6 625.184 264.528C622.56 261.456 619.072 259.92 614.72 259.92C610.368 259.92 606.88 261.456 604.256 264.528C601.632 267.6 600.32 272.048 600.32 277.872C600.32 283.632 601.632 288.08 604.256 291.216C606.88 294.288 610.368 295.824 614.72 295.824Z" fill="#CAD3F5"/>
<path d="M668.193 302.064C664.993 302.064 662.113 301.456 659.553 300.24C657.057 298.96 655.073 297.232 653.601 295.056C652.129 292.88 651.393 290.448 651.393 287.76C651.393 284.368 652.257 281.68 653.985 279.696C655.777 277.712 658.689 276.304 662.721 275.472C666.817 274.576 672.385 274.128 679.425 274.128H682.497V271.152C682.497 267.184 681.665 264.336 680.001 262.608C678.401 260.816 675.809 259.92 672.225 259.92C669.409 259.92 666.689 260.336 664.065 261.168C661.441 261.936 658.753 263.216 656.001 265.008L653.313 259.344C655.745 257.616 658.689 256.24 662.145 255.216C665.665 254.192 669.025 253.68 672.225 253.68C678.241 253.68 682.689 255.152 685.569 258.096C688.513 261.04 689.985 265.616 689.985 271.824V301.2H682.689V293.136C681.473 295.888 679.585 298.064 677.025 299.664C674.529 301.264 671.585 302.064 668.193 302.064ZM669.441 296.208C673.281 296.208 676.417 294.896 678.849 292.272C681.281 289.584 682.497 286.192 682.497 282.096V279.216H679.521C674.337 279.216 670.241 279.472 667.233 279.984C664.289 280.432 662.209 281.264 660.993 282.48C659.841 283.632 659.265 285.232 659.265 287.28C659.265 289.904 660.161 292.048 661.953 293.712C663.809 295.376 666.305 296.208 669.441 296.208Z" fill="#CAD3F5"/>
<path d="M709.211 301.2V254.544H716.795V262.896C719.291 257.264 724.411 254.16 732.155 253.584L734.939 253.296L735.515 260.016L730.619 260.592C726.203 260.976 722.843 262.384 720.539 264.816C718.235 267.184 717.083 270.448 717.083 274.608V301.2H709.211Z" fill="#CAD3F5"/>
<path d="M1678.65 307.5V239.82H1688.92L1712.92 284.076L1736.82 239.82H1746.9V307.5H1735.77V261.9L1716.37 297.228H1709.17L1689.78 262.092V307.5H1678.65ZM1766.6 307.5V239.82H1811.62V249.612H1778.41V268.236H1809.51V278.028H1778.41V297.708H1811.62V307.5H1766.6ZM1851.07 308.46C1845.76 308.46 1840.83 307.788 1836.29 306.444C1831.74 305.036 1827.9 303.148 1824.77 300.78L1828.51 291.084C1831.65 293.324 1835.07 295.052 1838.78 296.268C1842.56 297.484 1846.65 298.092 1851.07 298.092C1856.13 298.092 1859.81 297.26 1862.11 295.596C1864.41 293.868 1865.57 291.66 1865.57 288.972C1865.57 286.732 1864.73 284.972 1863.07 283.692C1861.47 282.412 1858.69 281.356 1854.72 280.524L1844.16 278.316C1832.13 275.756 1826.11 269.58 1826.11 259.788C1826.11 255.564 1827.23 251.884 1829.47 248.748C1831.71 245.612 1834.81 243.18 1838.78 241.452C1842.75 239.724 1847.33 238.86 1852.51 238.86C1857.12 238.86 1861.44 239.564 1865.47 240.972C1869.5 242.316 1872.86 244.236 1875.55 246.732L1871.81 255.948C1866.49 251.468 1860.03 249.228 1852.41 249.228C1848 249.228 1844.54 250.156 1842.05 252.012C1839.55 253.868 1838.3 256.3 1838.3 259.308C1838.3 261.612 1839.07 263.468 1840.61 264.876C1842.14 266.22 1844.77 267.276 1848.48 268.044L1858.94 270.252C1865.28 271.596 1869.98 273.708 1873.05 276.588C1876.19 279.468 1877.76 283.308 1877.76 288.108C1877.76 292.14 1876.67 295.692 1874.49 298.764C1872.32 301.836 1869.21 304.236 1865.18 305.964C1861.21 307.628 1856.51 308.46 1851.07 308.46ZM1916.43 308.46C1911.12 308.46 1906.19 307.788 1901.65 306.444C1897.1 305.036 1893.26 303.148 1890.13 300.78L1893.87 291.084C1897.01 293.324 1900.43 295.052 1904.14 296.268C1907.92 297.484 1912.02 298.092 1916.43 298.092C1921.49 298.092 1925.17 297.26 1927.47 295.596C1929.78 293.868 1930.93 291.66 1930.93 288.972C1930.93 286.732 1930.1 284.972 1928.43 283.692C1926.83 282.412 1924.05 281.356 1920.08 280.524L1909.52 278.316C1897.49 275.756 1891.47 269.58 1891.47 259.788C1891.47 255.564 1892.59 251.884 1894.83 248.748C1897.07 245.612 1900.18 243.18 1904.14 241.452C1908.11 239.724 1912.69 238.86 1917.87 238.86C1922.48 238.86 1926.8 239.564 1930.83 240.972C1934.86 242.316 1938.22 244.236 1940.91 246.732L1937.17 255.948C1931.86 251.468 1925.39 249.228 1917.78 249.228C1913.36 249.228 1909.9 250.156 1907.41 252.012C1904.91 253.868 1903.66 256.3 1903.66 259.308C1903.66 261.612 1904.43 263.468 1905.97 264.876C1907.5 266.22 1910.13 267.276 1913.84 268.044L1924.3 270.252C1930.64 271.596 1935.34 273.708 1938.42 276.588C1941.55 279.468 1943.12 283.308 1943.12 288.108C1943.12 292.14 1942.03 295.692 1939.86 298.764C1937.68 301.836 1934.58 304.236 1930.54 305.964C1926.58 307.628 1921.87 308.46 1916.43 308.46ZM1950.7 307.5L1981.33 239.82H1991.41L2022.03 307.5H2009.55L2002.83 291.852H1969.81L1963.18 307.5H1950.7ZM1986.22 253.164L1974.03 282.06H1998.61L1986.41 253.164H1986.22ZM2065.37 308.46C2057.89 308.46 2051.55 307.052 2046.37 304.236C2041.25 301.42 2037.34 297.42 2034.65 292.236C2031.97 287.052 2030.62 280.908 2030.62 273.804C2030.62 266.636 2032 260.46 2034.75 255.276C2037.5 250.028 2041.47 245.996 2046.65 243.18C2051.84 240.3 2058.05 238.86 2065.28 238.86C2070.01 238.86 2074.46 239.564 2078.62 240.972C2082.78 242.316 2086.24 244.204 2088.99 246.636L2084.86 256.236C2081.85 253.868 2078.78 252.172 2075.65 251.148C2072.51 250.124 2069.05 249.612 2065.28 249.612C2058.11 249.612 2052.67 251.692 2048.96 255.852C2045.31 260.012 2043.49 265.996 2043.49 273.804C2043.49 281.676 2045.37 287.66 2049.15 291.756C2052.93 295.852 2058.53 297.9 2065.95 297.9C2068.06 297.9 2070.21 297.74 2072.38 297.42C2074.62 297.036 2076.83 296.492 2079.01 295.788V280.044H2063.45V270.924H2089.28V303.468C2086.14 305.004 2082.43 306.22 2078.14 307.116C2073.85 308.012 2069.6 308.46 2065.37 308.46ZM2108.32 307.5V239.82H2153.34V249.612H2120.12V268.236H2151.23V278.028H2120.12V297.708H2153.34V307.5H2108.32ZM2170.4 307.5V239.82H2199.77C2207.2 239.82 2212.93 241.676 2216.96 245.388C2220.99 249.1 2223.01 254.284 2223.01 260.94C2223.01 267.596 2220.99 272.812 2216.96 276.588C2212.93 280.3 2207.2 282.156 2199.77 282.156H2182.69V307.5H2170.4ZM2182.69 272.46H2197.85C2206.69 272.46 2211.1 268.62 2211.1 260.94C2211.1 253.324 2206.69 249.516 2197.85 249.516H2182.69V272.46ZM2223.5 307.5L2254.12 239.82H2264.2L2294.82 307.5H2282.34L2275.62 291.852H2242.6L2235.98 307.5H2223.5ZM2259.02 253.164L2246.82 282.06H2271.4L2259.21 253.164H2259.02ZM2337.11 308.46C2330.07 308.46 2324.02 307.052 2318.97 304.236C2313.98 301.356 2310.14 297.324 2307.45 292.14C2304.76 286.892 2303.42 280.716 2303.42 273.612C2303.42 266.508 2304.76 260.364 2307.45 255.18C2310.14 249.996 2313.98 245.996 2318.97 243.18C2324.02 240.3 2330.07 238.86 2337.11 238.86C2341.66 238.86 2345.94 239.564 2349.98 240.972C2354.07 242.38 2357.43 244.396 2360.06 247.02L2356.02 256.812C2353.14 254.38 2350.2 252.62 2347.19 251.532C2344.18 250.38 2340.95 249.804 2337.5 249.804C2330.65 249.804 2325.43 251.884 2321.85 256.044C2318.26 260.14 2316.47 265.996 2316.47 273.612C2316.47 281.228 2318.26 287.116 2321.85 291.276C2325.43 295.436 2330.65 297.516 2337.5 297.516C2340.95 297.516 2344.18 296.972 2347.19 295.884C2350.2 294.732 2353.14 292.94 2356.02 290.508L2360.06 300.3C2357.43 302.86 2354.07 304.876 2349.98 306.348C2345.94 307.756 2341.66 308.46 2337.11 308.46ZM2375.58 307.5V239.82H2387.87V269.772H2388.06L2417.92 239.82H2432.89L2399.96 272.364L2434.52 307.5H2419.36L2388.06 276.204H2387.87V307.5H2375.58Z" fill="#CAD3F5"/>
</svg>
